<svg xmlns="http://www.w3.org/2000/svg" viewBox="0 0 420 140" role="img" aria-labelledby="title desc"><title id="title">Viralab</title><desc id="desc">Viralab dog mascot with sunglasses and play symbol</desc><g transform="translate(4 4)"><path d="M26 55 75 16l72 43-73 43z" fill="#c9823a"/><path d="m23 61 38-39 25 14 17-2 16 14 22 5 4 20-31 18-12 31-14-4 9-29-30 8-13 25H38l12-31-27-18z" fill="#fff4df" stroke="#33251d" stroke-width="7" stroke-linejoin="bevel"/><path d="m25 61 37-39 18 12-23 54-17 34H25l15-34z" fill="#c9823a" stroke="#33251d" stroke-width="7" stroke-linejoin="bevel"/><path d="M63 44h37l8 11 25-1-5 18-24 1-8-11H64z" fill="#33251d"/><path d="m100 88 27-13-21 26-4 17-15 5z" fill="#33251d"/><path d="M132 55h12l6 7-7 8-13-2z" fill="#33251d"/><path d="M151 36l8-13M159 48l16-5" stroke="#33251d" stroke-width="6"/></g><g fill="#33251d"><text x="190" y="78" font-family="Inter,Arial,sans-serif" font-size="48" font-weight="900" letter-spacing="-2">VIRALAB</text><text x="192" y="103" font-family="ui-monospace,monospace" font-size="11" font-weight="700" letter-spacing="3">DISCOVER. ANALYZE. GROW.</text></g></svg>